<?xml version="1.0" encoding="utf-8"?>
<!-- Generator: Adobe Illustrator 23.0.6, SVG Export Plug-In . SVG Version: 6.00 Build 0)  -->
<svg version="1.1" id="Capa_1" xmlns="http://www.w3.org/2000/svg" xmlns:xlink="http://www.w3.org/1999/xlink" x="0px" y="0px"
	 viewBox="0 0 307.3 307.3" style="enable-background:new 0 0 307.3 307.3;" xml:space="preserve">
<style type="text/css">
	.st0{fill:#FFFFFF;}
</style>
<g id="_x31_1-DSLR_Camera">
	<path class="st0" d="M284.9,66.1h-81.3l-16.4-27.6c-1.6-2.7-4.5-4.4-7.7-4.4h-51.7c-3.1,0-6,1.7-7.7,4.4l-16.4,27.6H77v-6.1
		c0-4.9-4-8.9-8.9-8.9h-33c-4.9,0-8.9,4-8.9,8.9v6.1h-3.9C10,66.1,0,76.2,0,88.5v162.2c0,12.4,10,22.4,22.4,22.4h262.5
		c12.4,0,22.4-10,22.4-22.4V88.5C307.3,76.2,297.3,66.1,284.9,66.1z M153.7,233.4c-35.2,0-63.8-28.5-63.8-63.8
		c0-35.2,28.5-63.8,63.8-63.8s63.8,28.5,63.8,63.8C217.4,204.8,188.9,233.4,153.7,233.4z M270.9,112.3H243c-4.9,0-8.9-4-8.9-8.9
		s4-8.9,8.9-8.9h27.9c4.9,0,8.9,4,8.9,8.9S275.9,112.3,270.9,112.3z"/>
	<circle class="st0" cx="153.7" cy="169.6" r="44.5"/>
</g>
</svg>
