<?xml version="1.0" encoding="utf-8"?>
<!-- Generator: Adobe Illustrator 23.0.6, SVG Export Plug-In . SVG Version: 6.00 Build 0)  -->
<svg version="1.1" id="Capa_1" xmlns="http://www.w3.org/2000/svg" xmlns:xlink="http://www.w3.org/1999/xlink" x="0px" y="0px"
	 viewBox="0 0 385 385" style="enable-background:new 0 0 385 385;" xml:space="preserve">
<style type="text/css">
	.st0{fill:#FFFFFF;}
</style>
<g>
	<g id="Download">
		<path class="st0" d="M372.9,264.7c-6.6,0-12,5.4-12,12v84.2H24.1v-84.2c0-6.6-5.4-12-12-12s-12,5.4-12,12v96.2c0,6.6,5.4,12,12,12
			h360.9c6.6,0,12-5.4,12-12v-96.2C385,270.1,379.6,264.7,372.9,264.7z"/>
		<path class="st0" d="M183.7,285.2c4.7,4.6,12.5,4.7,17.2,0l84.2-83c4.8-4.7,4.7-12.3,0-17c-4.7-4.7-12.4-4.7-17.2,0l-63.5,62.6V12
			c0-6.6-5.4-12-12.2-12s-12.2,5.4-12.2,12v235.7l-63.5-62.6c-4.8-4.7-12.4-4.7-17.2,0c-4.8,4.7-4.8,12.3,0,17L183.7,285.2z"/>
	</g>
</g>
</svg>
