<?xml version="1.0" encoding="utf-8"?>
<!-- Generator: Adobe Illustrator 25.2.1, SVG Export Plug-In . SVG Version: 6.00 Build 0)  -->
<svg version="1.1" id="Capa_1" xmlns="http://www.w3.org/2000/svg" xmlns:xlink="http://www.w3.org/1999/xlink" x="0px" y="0px"
	 viewBox="0 0 385 385" style="enable-background:new 0 0 385 385;" xml:space="preserve">
<style type="text/css">
	.st0{fill:#FFFFFF;}
</style>
<g>
	<g id="Download">
		<path class="st0" d="M363.9,13.7c-3.3-3.3-8-4.5-12.4-3.2L19,108.3c-5.1,1.5-8.5,5.7-9,10.9c-0.5,5.3,2.2,10,6.9,12.4L169.7,208
			L246,360.7c2.2,4.4,6.4,7,11.2,7c0.4,0,0.8,0,1.2-0.1c5.3-0.5,9.5-3.9,10.9-9l97.8-332.5C368.4,21.6,367.2,17,363.9,13.7z
			 M311.3,48.6L176.5,183.3L56.8,123.4L311.3,48.6z M329.1,66.4l-74.8,254.5l-59.9-119.8L329.1,66.4z"/>
	</g>
</g>
</svg>
