<?xml version="1.0" encoding="utf-8"?>
<!-- Generator: Adobe Illustrator 25.2.1, SVG Export Plug-In . SVG Version: 6.00 Build 0)  -->
<svg version="1.1" id="Capa_1" xmlns="http://www.w3.org/2000/svg" xmlns:xlink="http://www.w3.org/1999/xlink" x="0px" y="0px"
	 viewBox="0 0 477.9 477.9" style="enable-background:new 0 0 477.9 477.9;" xml:space="preserve">
<style type="text/css">
	.st0{fill:#FFFFFF;stroke:#FFFFFF;stroke-width:8;stroke-miterlimit:10;}
</style>
<g>
	<path class="st0" d="M431.8,406.4H46.6c-13.6,0-24.7-11.1-24.7-24.7V145.5c0-13.6,11.1-24.7,24.7-24.7h87.6
		c3.4-1,12.6-13.6,18.4-21.3c13.1-17.4,21.3-28.1,31-28.1h110.8c9.7,0,17.9,10.6,30.5,27.6c5.8,7.7,15.5,20.8,19.4,21.8h87.1
		c13.6,0,24.7,11.1,24.7,24.7v236.2C456,395.3,445.4,406.4,431.8,406.4z M46.6,135.4c-5.8,0-10.2,4.4-10.2,10.2v236.2
		c0,5.8,4.4,10.2,10.2,10.2h384.8c5.8,0,10.2-4.4,10.2-10.2V145.5c0-5.8-4.4-10.2-10.2-10.2h-87.1c-9.7,0-17.9-10.6-30.5-27.6
		C307.9,100,298.2,87,294.4,86H184c-3.9,1-13.6,14-19.4,22.3c-12.6,16.9-20.8,27.1-30,27.1C134.6,135.4,46.6,135.4,46.6,135.4z"/>
	<g>
		<path class="st0" d="M292.7,177.5c-43.1-30.5-103.1-20.3-133.1,22.7l0,0l0,0c0,0,0,0,0,0.5c0,0,0,0.5-0.5,0.5l0,0
			c-1.5,2.9-0.5,6.8,1.9,8.7c2.9,1.9,6.8,1.5,8.7-1l0,0c0-0.5,0.5-0.5,0.5-1c26.1-36.8,77.4-45.5,114.7-19.4
			c25.2,17.9,37.3,47.4,34.4,76.5L297,245.2c-2.9-2.4-7.3-2.4-9.7,0.5s-2.4,7.3,0.5,9.7l35.8,31.5c1.5,1,2.9,1.9,4.8,1.5
			c1.9,0,3.4-1,4.8-2.4l31.5-35.8l0.5-0.5c1.9-2.9,1.5-6.8-1-8.7c-2.9-2.4-7.3-2.4-9.7,0.5l-21.8,24.7
			C336.2,232.7,322.2,198.3,292.7,177.5z"/>
		<path class="st0" d="M308.6,305.7L308.6,305.7c-0.5,0.5-0.5,0.5-1,1c-26.1,36.8-77.4,45.5-114.7,19.4
			c-25.2-17.9-37.3-47.4-34.4-76.5l22.3,19.8c2.9,2.4,7.3,2.4,9.7-0.5c2.4-2.9,2.4-7.3-0.5-9.7l-35.8-31.5c-1.5-1-2.9-1.9-4.8-1.5
			c-1.9,0-3.4,1-4.8,2.4l-31.5,35.8l-0.5,0.5c-1.9,2.9-1.5,6.8,1,8.7c2.9,2.4,7.3,2.4,9.7-0.5l21.8-24.7
			c-3.9,33.4,10.2,67.8,39.7,88.6c43.1,30.5,103.1,20.3,133.1-22.7l0,0l0,0c0,0,0,0,0-0.5c0,0,0-0.5,0.5-0.5l0,0
			c1.5-2.9,0.5-6.8-1.9-8.7C314.9,302.8,311.1,303.3,308.6,305.7z"/>
	</g>
</g>
</svg>
